<svg  id="svg" version="1.1" xmlns="http://www.w3.org/2000/svg" xmlns:xlink="http://www.w3.org/1999/xlink">
    <symbol id="match" width="24" height="24" viewBox="0 0 400 400"><path stroke="black" id="path0"  fill="#000000" fill-rule="evenodd" d="M141.948 22.984 C -16.943 79.597,-28.951 297.237,122.850 369.140 C 163.728 388.503,236.272 388.503,277.150 369.140 C 418.665 302.109,420.632 102.126,280.457 32.848 C 243.213 14.440,178.801 9.854,141.948 22.984 M212.000 44.000 C 199.749 53.583,200.251 53.583,188.000 44.000 L 178.000 36.178 200.000 36.178 L 222.000 36.178 212.000 44.000 M170.192 57.950 L 192.000 71.901 191.833 92.950 L 191.666 114.000 156.538 138.858 L 121.410 163.715 100.649 157.076 C 78.628 150.034,79.548 151.412,69.733 110.782 C 66.457 97.221,91.470 70.675,122.979 54.273 C 147.068 41.735,144.534 41.537,170.192 57.950 M276.133 54.067 C 287.060 59.605,304.029 71.827,313.841 81.229 L 331.682 98.324 325.699 123.971 C 322.408 138.077,319.329 149.893,318.858 150.230 C 318.386 150.566,309.144 153.797,298.321 157.409 L 278.641 163.977 246.321 140.468 L 214.000 116.958 212.821 92.928 L 211.642 68.897 230.821 56.727 C 254.404 41.762,252.115 41.897,276.133 54.067 M57.089 142.575 C 58.615 150.557,56.523 155.376,48.555 162.234 C 35.080 173.832,34.725 173.167,42.388 150.678 C 49.573 129.590,54.127 127.080,57.089 142.575 M355.644 148.389 C 361.495 167.919,360.627 169.584,349.211 160.726 C 342.731 155.699,341.096 151.221,342.737 143.000 C 345.815 127.578,349.923 129.293,355.644 148.389 M232.061 156.321 C 264.283 179.757,263.184 175.747,249.176 218.762 L 238.351 252.000 199.533 252.000 L 160.715 252.000 148.596 215.864 L 136.476 179.729 165.238 158.083 C 200.526 131.526,198.060 131.591,232.061 156.321 M114.314 184.487 C 116.686 186.331,123.609 204.710,129.698 225.327 L 140.768 262.814 129.384 279.255 C 107.590 310.731,66.886 304.007,49.514 266.062 C 30.119 223.698,31.155 205.622,54.120 185.699 L 73.409 168.966 91.704 175.050 C 101.767 178.396,111.941 182.643,114.314 184.487 M346.734 186.815 C 367.272 203.645,368.299 218.073,352.011 260.940 C 336.135 302.723,293.754 312.438,270.528 279.619 L 259.056 263.409 270.214 225.625 C 282.095 185.394,283.396 183.397,302.000 176.853 C 321.686 169.928,327.781 171.285,346.734 186.815 M251.322 289.654 C 266.220 310.399,266.613 316.031,254.835 339.918 C 244.373 361.135,230.278 365.922,188.000 362.613 C 152.219 359.813,150.061 358.484,140.432 333.321 L 131.946 311.146 146.313 291.573 L 160.681 272.000 199.663 272.000 L 238.644 272.000 251.322 289.654 M115.000 327.139 C 126.490 341.824,119.566 344.185,102.000 331.570 C 92.100 324.461,84.000 317.906,84.000 317.004 C 84.000 312.798,110.578 321.486,115.000 327.139 M299.563 329.961 C 278.100 347.023,273.952 347.564,281.861 332.269 C 285.814 324.624,291.771 319.957,298.964 318.869 C 305.034 317.950,311.603 316.929,313.563 316.599 C 315.523 316.270,309.223 322.283,299.563 329.961 "></path></symbol>
    <symbol id="match_chosen" width="24" height="24" viewBox="0 0 400 400"><path stroke="black"  id="path0"  fill="#000000" fill-rule="evenodd" d="M141.948 22.984 C -57.486 94.042,-10.924 382.000,200.000 382.000 C 397.475 382.000,457.742 120.467,280.457 32.848 C 243.213 14.440,178.801 9.854,141.948 22.984 M174.573 51.000 L 191.986 62.000 191.993 92.331 L 192.000 122.663 163.400 143.331 C 131.355 166.489,127.685 167.096,94.239 154.762 C 71.276 146.295,70.315 145.360,65.647 126.978 L 60.818 107.956 78.630 88.144 C 90.053 75.439,106.601 63.250,124.759 54.166 C 158.570 37.251,153.336 37.584,174.573 51.000 M277.523 54.850 C 300.383 66.342,336.010 100.448,335.978 110.810 C 335.892 138.285,328.876 146.983,298.574 157.171 L 269.343 166.999 240.749 146.499 L 212.155 126.000 212.077 93.144 L 212.000 60.288 226.903 50.161 C 243.283 39.031,246.680 39.345,277.523 54.850 M97.951 177.280 L 125.460 186.559 136.608 219.734 L 147.755 252.910 129.526 278.455 C 91.730 331.422,42.078 298.389,36.696 216.696 C 33.897 174.202,52.789 162.045,97.951 177.280 M351.592 179.948 C 364.869 191.301,365.128 192.112,362.754 214.824 C 353.694 301.503,308.743 332.502,270.277 278.597 L 252.149 253.193 263.356 219.844 L 274.562 186.494 300.281 177.559 C 333.441 166.040,335.436 166.133,351.592 179.948 M253.202 292.093 L 272.405 319.931 264.613 337.546 C 249.051 372.727,152.057 374.566,135.208 340.000 C 125.713 320.520,125.757 320.336,147.000 290.677 L 166.000 264.150 200.000 264.202 L 234.000 264.254 253.202 292.093 "></path></symbol>
</svg>