<svg  id="svg" version="1.1" xmlns="http://www.w3.org/2000/svg" xmlns:xlink="http://www.w3.org/1999/xlink">
    <symbol id="participants" width="24" height="24" viewBox="0 0 400 400"><path stroke="black" id="path0"  fill="#000000" fill-rule="evenodd" d="M101.600 29.600 C 84.969 46.231,82.285 75.656,95.830 92.876 C 105.746 105.482,97.992 110.474,64.248 113.208 C 21.712 116.654,-2.050 170.570,25.072 202.101 L 34.145 212.648 19.259 228.297 C 2.301 246.123,-0.970 258.453,0.769 297.997 L 2.000 325.994 18.000 331.309 C 28.769 334.887,49.310 336.196,80.826 335.312 L 127.652 334.000 128.826 354.000 C 130.323 379.507,140.059 383.548,200.000 383.548 C 259.941 383.548,269.677 379.507,271.174 354.000 L 272.348 334.000 319.174 335.312 C 350.690 336.196,371.231 334.887,382.000 331.309 L 398.000 325.994 399.231 297.997 C 400.970 258.453,397.699 246.123,380.741 228.297 L 365.855 212.648 374.928 202.101 C 404.450 167.779,374.126 112.200,325.800 112.059 C 299.414 111.982,294.346 106.903,304.324 90.539 C 325.351 56.056,303.127 16.000,262.969 16.000 C 221.640 16.000,198.378 55.613,219.433 90.140 L 226.837 102.280 211.737 119.295 C 198.169 134.585,196.381 135.501,194.105 128.331 C 192.712 123.942,186.524 116.103,180.354 110.911 C 169.267 101.582,169.222 101.364,176.567 92.293 C 212.999 47.302,142.692 -11.492,101.600 29.600 M156.000 44.000 C 173.313 61.313,160.526 92.000,136.000 92.000 C 120.603 92.000,108.000 79.397,108.000 64.000 C 108.000 48.603,120.603 36.000,136.000 36.000 C 142.667 36.000,151.556 39.556,156.000 44.000 M282.047 44.052 C 298.628 62.373,286.037 92.000,261.670 92.000 C 247.630 92.000,232.000 77.250,232.000 64.000 C 232.000 40.697,266.549 26.926,282.047 44.052 M159.420 121.700 C 181.866 133.307,185.750 158.190,166.960 170.008 C 142.089 185.651,134.933 228.611,153.519 250.699 L 163.039 262.013 154.002 268.829 C 145.051 275.581,144.942 275.498,142.458 259.965 C 140.786 249.508,134.939 239.016,124.903 228.467 L 109.855 212.648 118.928 202.101 C 131.590 187.380,131.850 149.974,119.400 134.146 C 105.826 116.889,133.483 108.287,159.420 121.700 M283.280 119.471 C 287.429 122.101,286.357 126.066,278.280 137.967 C 262.920 160.602,266.135 191.513,285.521 207.602 C 290.772 211.961,289.787 214.188,278.044 224.498 C 270.606 231.029,261.500 244.278,257.810 253.940 C 251.926 269.347,250.210 270.950,243.848 266.977 C 237.001 262.701,237.161 261.775,246.713 250.424 C 268.442 224.600,256.424 181.667,221.879 161.705 C 212.444 156.252,219.455 136.156,235.081 123.864 C 245.476 115.687,273.312 113.150,283.280 119.471 M98.182 141.818 C 121.403 165.039,104.998 204.000,72.000 204.000 C 49.483 204.000,36.000 190.517,36.000 168.000 C 36.000 145.483,49.483 132.000,72.000 132.000 C 84.040 132.000,90.958 134.594,98.182 141.818 M351.898 139.898 C 376.259 164.259,361.331 204.000,327.818 204.000 C 294.998 204.000,278.675 164.962,301.818 141.818 C 314.441 129.195,340.207 128.207,351.898 139.898 M217.821 182.485 C 237.182 189.914,240.967 223.649,224.308 240.308 C 199.454 265.161,164.000 249.396,164.000 213.491 C 164.000 188.246,191.520 172.392,217.821 182.485 M108.074 243.133 C 122.436 257.494,134.613 298.721,126.801 306.533 C 108.611 324.722,15.921 316.583,16.095 296.812 C 16.629 236.392,70.117 205.176,108.074 243.133 M357.540 236.353 C 377.204 251.820,389.418 301.707,375.628 310.230 C 352.716 324.390,271.945 313.949,272.095 296.846 C 272.575 242.337,321.296 207.844,357.540 236.353 M229.540 284.353 C 249.204 299.820,261.418 349.707,247.628 358.230 C 224.716 372.390,143.945 361.949,144.095 344.846 C 144.575 290.337,193.296 255.844,229.540 284.353 "></path></symbol>
    <symbol id="participants_chosen" width="24" height="24" viewBox="0 0 400 400"><path stroke="black"  id="path0"  fill="#000000" fill-rule="evenodd" d="M106.545 26.545 C 80.359 52.732,98.709 96.000,136.000 96.000 C 173.291 96.000,191.641 52.732,165.455 26.545 C 150.422 11.513,121.578 11.513,106.545 26.545 M231.692 27.692 C 222.522 36.862,220.000 42.969,220.000 56.000 C 220.000 92.950,265.754 110.862,292.308 84.308 C 318.913 57.702,300.411 16.000,262.000 16.000 C 246.758 16.000,241.266 18.119,231.692 27.692 M110.778 106.555 C 109.373 107.960,112.604 114.316,117.958 120.679 C 137.638 144.068,138.169 173.994,119.327 197.946 L 110.775 208.819 125.610 222.409 C 133.769 229.884,140.910 236.000,141.478 236.000 C 142.046 236.000,141.786 225.650,140.901 213.000 C 138.907 184.504,149.547 166.019,174.861 154.000 C 195.794 144.061,196.026 139.085,176.471 119.529 C 161.384 104.443,120.888 96.445,110.778 106.555 M229.255 111.801 C 203.548 127.476,201.964 142.960,224.937 154.000 C 250.106 166.095,258.015 179.596,257.923 210.307 C 257.881 224.438,258.105 236.000,258.420 236.000 C 258.736 236.000,265.622 229.929,273.723 222.510 L 288.451 209.019 278.225 193.951 C 264.269 173.385,264.206 146.707,278.066 126.283 C 283.602 118.125,287.096 109.774,285.830 107.725 C 281.543 100.789,242.729 103.585,229.255 111.801 M37.600 125.600 C 11.333 151.867,26.889 207.682,60.600 208.123 C 66.954 208.206,62.994 211.122,48.376 217.123 C 12.578 231.819,2.000 248.746,2.000 291.336 L 2.000 325.954 16.000 330.751 C 23.700 333.390,49.350 335.650,73.000 335.774 L 116.000 336.000 116.000 324.765 C 116.000 318.585,122.260 303.134,129.910 290.429 L 143.820 267.329 136.336 252.665 C 126.454 233.303,116.905 225.133,93.444 215.969 C 81.313 211.231,77.270 208.304,82.693 208.187 C 95.498 207.912,115.212 189.493,119.561 173.743 C 133.018 125.005,73.283 89.917,37.600 125.600 M292.941 125.693 C 264.662 151.609,280.905 207.443,316.941 208.187 C 322.933 208.311,319.355 210.969,306.375 216.038 C 265.070 232.167,248.850 259.252,265.824 283.746 C 271.785 292.348,278.959 307.175,281.765 316.693 L 286.866 334.000 326.715 335.132 C 351.579 335.838,372.475 334.317,382.282 331.087 L 398.000 325.910 398.000 291.315 C 398.000 248.748,387.416 231.816,351.624 217.123 C 338.634 211.790,333.471 208.197,338.693 208.123 C 351.457 207.942,371.202 189.530,375.561 173.743 C 389.111 124.668,330.962 90.849,292.941 125.693 M165.600 173.600 C 139.346 199.854,154.760 255.267,188.600 256.282 C 195.988 256.503,194.752 257.756,182.828 262.132 C 143.689 276.497,128.000 299.837,128.000 343.700 C 128.000 377.063,130.163 379.009,172.240 383.505 C 235.063 390.217,276.000 378.618,276.000 354.105 C 276.000 309.155,257.029 277.522,222.000 264.060 C 209.831 259.384,205.404 256.301,210.693 256.187 C 223.498 255.912,243.212 237.493,247.561 221.743 C 261.018 173.005,201.283 137.917,165.600 173.600 " ></path></symbol>
</svg>