<svg id="svg" version="1.1" xmlns="http://www.w3.org/2000/svg" xmlns:xlink="http://www.w3.org/1999/xlink">
    <symbol id="plus" viewBox="0 0 100 100"><path fill="black" id="path0" fill-rule="evenodd" d="M38.6 5.6C16.1 11 1 34.2 4.8 57.3c6.2 36.8 51.2 51.3 77.5 25 18-18 18-46.6-.2-64.8C70.6 6 54.9 1.7 38.6 5.6zm21.9 3.9c31.2 8.1 41.8 47.3 19.1 70.1-24.1 24-65.1 10.7-70.9-23C3.7 27.1 31.3 2 60.5 9.5z"/><path d="M48 37v11H37c-10.3 0-11 .1-11 2s.7 2 11 2h11v11c0 10.3.1 11 2 11s2-.7 2-11V52h11c10.3 0 11-.1 11-2s-.7-2-11-2H52V37c0-10.3-.1-11-2-11s-2 .7-2 11z"/></symbol>
    <symbol id="plus_hover" viewBox="0 0 100 100"><path fill="black" id="path0" fill-rule="evenodd" d="M38.6 5.6C16.2 11 1 34.3 4.8 57.2c6.3 37.4 51.9 51.6 78 24.4 31.9-33.3.7-86.9-44.2-76zM52 37v11h11c10.3 0 11 .1 11 2s-.7 2-11 2H52v11c0 10.3-.1 11-2 11s-2-.7-2-11V52H37c-10.3 0-11-.1-11-2s.7-2 11-2h11V37c0-10.3.1-11 2-11s2 .7 2 11z"/></symbol>
</svg>