<svg  id="svg" version="1.1" xmlns="http://www.w3.org/2000/svg" xmlns:xlink="http://www.w3.org/1999/xlink">
    <symbol id="table" width="24" height="24" viewBox="0 0 400 400"><path id="path0" fill="currentColor"  fill-rule="evenodd" d="M36.800 36.800 C 29.905 43.695,29.905 356.305,36.800 363.200 C 43.695 370.095,356.305 370.095,363.200 363.200 C 370.095 356.305,370.095 43.695,363.200 36.800 C 356.305 29.905,43.695 29.905,36.800 36.800 M347.049 199.049 L 348.097 348.097 199.049 347.049 L 50.000 346.000 48.949 202.471 C 48.192 99.126,49.181 57.397,52.480 53.422 C 56.251 48.878,82.616 48.087,201.531 48.951 L 346.000 50.000 347.049 199.049 M100.800 100.800 C 93.982 107.618,93.982 292.382,100.800 299.200 C 107.618 306.018,292.382 306.018,299.200 299.200 C 306.018 292.382,306.018 107.618,299.200 100.800 C 292.382 93.982,107.618 93.982,100.800 100.800 M160.000 136.000 L 160.000 160.000 136.000 160.000 L 112.000 160.000 112.000 140.800 C 112.000 130.240,114.160 119.440,116.800 116.800 C 119.440 114.160,130.240 112.000,140.800 112.000 L 160.000 112.000 160.000 136.000 M220.000 136.000 L 220.000 160.000 198.000 160.000 L 176.000 160.000 176.000 136.000 L 176.000 112.000 198.000 112.000 L 220.000 112.000 220.000 136.000 M283.200 137.000 L 284.399 160.000 262.200 160.000 L 240.000 160.000 240.000 135.791 L 240.000 111.582 261.000 112.791 L 282.000 114.000 283.200 137.000 M160.000 198.000 L 160.000 220.000 136.000 220.000 L 112.000 220.000 112.000 198.000 L 112.000 176.000 136.000 176.000 L 160.000 176.000 160.000 198.000 M220.000 198.000 L 220.000 220.000 198.000 220.000 L 176.000 220.000 176.000 198.000 L 176.000 176.000 198.000 176.000 L 220.000 176.000 220.000 198.000 M284.000 197.734 C 284.000 218.471,283.495 219.527,273.000 220.734 C 244.312 224.035,240.000 221.006,240.000 197.546 L 240.000 176.000 262.000 176.000 L 284.000 176.000 284.000 197.734 M160.000 262.200 L 160.000 284.399 137.000 283.200 L 114.000 282.000 112.791 261.000 L 111.582 240.000 135.791 240.000 L 160.000 240.000 160.000 262.200 M220.000 262.000 L 220.000 284.000 198.000 284.000 L 176.000 284.000 176.000 262.000 L 176.000 240.000 198.000 240.000 L 220.000 240.000 220.000 262.000 M284.000 262.000 L 284.000 284.000 262.000 284.000 L 240.000 284.000 240.000 262.000 L 240.000 240.000 262.000 240.000 L 284.000 240.000 284.000 262.000 "></path></symbol>
    <symbol id="table_chosen" width="24" height="24" viewBox="0 0 400 400"><path id="path0"  fill="currentColor" fill-rule="evenodd" d="M36.800 36.800 C 29.905 43.695,29.905 356.305,36.800 363.200 C 43.695 370.095,356.305 370.095,363.200 363.200 C 370.095 356.305,370.095 43.695,363.200 36.800 C 356.305 29.905,43.695 29.905,36.800 36.800 M160.000 132.000 L 160.000 160.000 132.000 160.000 L 104.000 160.000 104.000 140.000 C 104.000 125.333,106.133 117.867,112.000 112.000 C 117.867 106.133,125.333 104.000,140.000 104.000 L 160.000 104.000 160.000 132.000 M220.000 132.000 L 220.000 160.000 198.000 160.000 L 176.000 160.000 176.000 132.000 L 176.000 104.000 198.000 104.000 L 220.000 104.000 220.000 132.000 M284.263 108.141 C 290.585 111.524,292.000 116.646,292.000 136.141 L 292.000 160.000 266.000 160.000 L 240.000 160.000 240.000 132.000 L 240.000 104.000 258.263 104.000 C 268.308 104.000,280.008 105.863,284.263 108.141 M160.000 198.000 L 160.000 220.000 132.000 220.000 L 104.000 220.000 104.000 198.000 L 104.000 176.000 132.000 176.000 L 160.000 176.000 160.000 198.000 M220.000 198.000 L 220.000 220.000 198.000 220.000 L 176.000 220.000 176.000 198.000 L 176.000 176.000 198.000 176.000 L 220.000 176.000 220.000 198.000 M292.000 198.000 L 292.000 220.000 266.000 220.000 L 240.000 220.000 240.000 198.000 L 240.000 176.000 266.000 176.000 L 292.000 176.000 292.000 198.000 M160.000 266.000 L 160.000 292.000 136.141 292.000 C 108.300 292.000,104.000 287.487,104.000 258.263 L 104.000 240.000 132.000 240.000 L 160.000 240.000 160.000 266.000 M220.000 266.000 L 220.000 292.000 198.000 292.000 L 176.000 292.000 176.000 266.000 L 176.000 240.000 198.000 240.000 L 220.000 240.000 220.000 266.000 M291.191 265.000 L 290.000 290.000 265.000 291.191 L 240.000 292.382 240.000 266.191 L 240.000 240.000 266.191 240.000 L 292.382 240.000 291.191 265.000 " ></path></symbol>
</svg>