<svg width="24" height="24" viewBox="0 0 16 16" fill="none" xmlns="http://www.w3.org/2000/svg"><g clip-path="url(#clip0)" fill="#000"><path d="M15.5 7.5H9.17a.5.5 0 010-1h6.33a.5.5 0 010 1z"/><path d="M13 10a.5.5 0 01-.35-.85L14.79 7l-2.14-2.15a.5.5 0 11.7-.7l2.5 2.5c.2.2.2.5 0 .7l-2.5 2.5A.5.5 0 0113 10zM5.33 16c-.14 0-.27-.02-.41-.06L.91 14.6c-.55-.19-.91-.7-.91-1.27v-12A1.33 1.33 0 011.75.07l4 1.34c.55.2.92.7.92 1.27v12c0 .73-.6 1.33-1.34 1.33zm-4-15a.33.33 0 00-.33.34v12c0 .14.1.27.23.32l4 1.33.1.01c.19 0 .34-.15.34-.33v-12c0-.14-.1-.28-.23-.32l-4-1.33a.36.36 0 00-.1-.02z"/><path d="M10.17 5.33a.5.5 0 01-.5-.5v-3A.83.83 0 008.83 1h-7.5a.5.5 0 010-1h7.5c1.01 0 1.84.82 1.84 1.83v3a.5.5 0 01-.5.5zM8.83 14H6.17a.5.5 0 010-1h2.66c.46 0 .84-.37.84-.83v-3a.5.5 0 011 0v3c0 1-.83 1.83-1.84 1.83z"/></g><defs><clipPath id="clip0"><path fill="#fff" d="M0 0h16v16H0z"/></clipPath></defs></svg>